<?xml version="1.0" standalone="no"?><svg xmlns="http://www.w3.org/2000/svg" viewBox="0 0 1440 320"><path fill="#222" fill-opacity="1" d="M0,192L21.8,165.3C43.6,139,87,85,131,85.3C174.5,85,218,139,262,176C305.5,213,349,235,393,250.7C436.4,267,480,277,524,240C567.3,203,611,117,655,80C698.2,43,742,53,785,101.3C829.1,149,873,235,916,256C960,277,1004,235,1047,197.3C1090.9,160,1135,128,1178,112C1221.8,96,1265,96,1309,128C1352.7,160,1396,224,1418,256L1440,288L1440,320L1418.2,320C1396.4,320,1353,320,1309,320C1265.5,320,1222,320,1178,320C1134.5,320,1091,320,1047,320C1003.6,320,960,320,916,320C872.7,320,829,320,785,320C741.8,320,698,320,655,320C610.9,320,567,320,524,320C480,320,436,320,393,320C349.1,320,305,320,262,320C218.2,320,175,320,131,320C87.3,320,44,320,22,320L0,320Z"></path></svg>